<?xml version="1.0" standalone="no"?>
<!DOCTYPE svg PUBLIC "-//W3C//DTD SVG 20010904//EN"
 "http://www.w3.org/TR/2001/REC-SVG-20010904/DTD/svg10.dtd">
<svg version="1.0" xmlns="http://www.w3.org/2000/svg"
 width="1024.000000pt" height="1024.000000pt" viewBox="0 0 1024.000000 1024.000000"
 preserveAspectRatio="xMidYMid meet">

<g transform="translate(0.000000,1024.000000) scale(0.100000,-0.100000)"
fill="#000000" stroke="none">
<path d="M1488 9973 c18 -2 45 -2 60 0 15 2 0 4 -33 4 -33 0 -45 -2 -27 -4z"/>
<path d="M1648 9973 c34 -2 88 -2 120 0 31 2 3 3 -63 3 -66 0 -92 -1 -57 -3z"/>
<path d="M1823 9910 c0 -25 2 -35 4 -22 2 12 2 32 0 45 -2 12 -4 2 -4 -23z"/>
<path d="M852 9825 c0 -16 2 -22 5 -12 2 9 2 23 0 30 -3 6 -5 -1 -5 -18z"/>
<path d="M853 9720 c0 -41 2 -58 4 -37 2 20 2 54 0 75 -2 20 -4 3 -4 -38z"/>
<path d="M1848 9713 c7 -3 16 -2 19 1 4 3 -2 6 -13 5 -11 0 -14 -3 -6 -6z"/>
<path d="M1900 9716 c0 -2 9 -6 20 -9 11 -3 20 -1 20 4 0 5 -9 9 -20 9 -11 0
-20 -2 -20 -4z"/>
<path d="M1932 9630 c0 -19 2 -27 5 -17 2 9 2 25 0 35 -3 9 -5 1 -5 -18z"/>
<path d="M1853 9603 c9 -2 23 -2 30 0 6 3 -1 5 -18 5 -16 0 -22 -2 -12 -5z"/>
<path d="M1822 9520 c0 -14 2 -19 5 -12 2 6 2 18 0 25 -3 6 -5 1 -5 -13z"/>
<path d="M851 9504 c0 -11 3 -14 6 -6 3 7 2 16 -1 19 -3 4 -6 -2 -5 -13z"/>
<path d="M1578 9483 c7 -3 16 -2 19 1 4 3 -2 6 -13 5 -11 0 -14 -3 -6 -6z"/>
<path d="M1633 9483 c15 -2 37 -2 50 0 12 2 0 4 -28 4 -27 0 -38 -2 -22 -4z"/>
<path d="M1718 9483 c6 -2 18 -2 25 0 6 3 1 5 -13 5 -14 0 -19 -2 -12 -5z"/>
<path d="M1778 9483 c12 -2 30 -2 40 0 9 3 -1 5 -23 4 -22 0 -30 -2 -17 -4z"/>
<path d="M854 9285 c0 -99 2 -138 3 -87 2 51 2 132 0 180 -1 48 -3 6 -3 -93z"/>
<path d="M1648 9213 c6 -2 18 -2 25 0 6 3 1 5 -13 5 -14 0 -19 -2 -12 -5z"/>
<path d="M1342 9090 c0 -14 2 -19 5 -12 2 6 2 18 0 25 -3 6 -5 1 -5 -13z"/>
<path d="M1802 8950 c0 -14 2 -19 5 -12 2 6 2 18 0 25 -3 6 -5 1 -5 -13z"/>
<path d="M1808 8848 c5 -90 11 -96 10 -10 -1 39 -4 72 -8 72 -3 0 -5 -28 -2
-62z"/>
<path d="M1221 8814 c0 -11 3 -14 6 -6 3 7 2 16 -1 19 -3 4 -6 -2 -5 -13z"/>
<path d="M1118 8743 c12 -2 32 -2 45 0 12 2 2 4 -23 4 -25 0 -35 -2 -22 -4z"/>
<path d="M1198 8743 c7 -3 16 -2 19 1 4 3 -2 6 -13 5 -11 0 -14 -3 -6 -6z"/>
<path d="M1593 8513 c9 -2 23 -2 30 0 6 3 -1 5 -18 5 -16 0 -22 -2 -12 -5z"/>
<path d="M731 8484 c0 -11 3 -14 6 -6 3 7 2 16 -1 19 -3 4 -6 -2 -5 -13z"/>
<path d="M1563 8445 c0 -33 2 -45 4 -27 2 18 2 45 0 60 -2 15 -4 0 -4 -33z"/>
<path d="M2019 8382 c0 -4 0 -33 1 -64 l1 -58 -55 0 -56 0 0 -65 0 -65 -70 0
-70 0 0 -70 0 -70 -61 0 -60 0 2 -122 1 -123 -66 -3 -66 -3 -1 -92 c-1 -51 -3
-99 -4 -107 -1 -8 -3 -21 -4 -27 0 -9 -18 -13 -50 -13 l-48 0 -6 -92 c-3 -51
-3 -132 0 -180 l6 -86 -102 -7 -101 -8 0 -58 0 -59 150 0 c169 0 156 6 162
-85 l3 -40 123 -3 122 -3 0 -54 0 -55 -60 0 -60 0 0 -55 0 -55 -44 0 c-24 0
-51 -3 -60 -6 -14 -5 -16 3 -16 55 l0 61 -108 0 -108 0 4 60 4 60 -241 0 -241
0 0 61 0 60 51 -5 c68 -7 78 -19 14 -15 l-50 3 -3 -47 -4 -47 121 0 121 0 0
56 0 56 -65 -4 -65 -4 0 64 0 65 118 -5 c64 -2 96 -3 71 -1 -53 4 -59 14 -59
96 l0 47 -127 0 -128 0 -2 52 c-2 28 -9 55 -15 60 -7 4 -61 8 -120 8 l-107 0
-7 -35 c-3 -20 -4 -49 0 -65 l6 -30 -65 0 -65 0 0 -125 0 -125 60 0 59 0 3
-62 3 -63 128 -3 127 -3 0 -59 0 -60 126 0 125 0 -5 -157 c-3 -87 -8 -285 -12
-440 l-6 -283 61 0 61 0 0 -115 0 -115 60 0 60 0 2 -182 3 -183 56 -3 57 -3 6
-37 c3 -20 6 -72 6 -114 l0 -78 55 0 55 0 0 -60 0 -59 58 -3 57 -3 3 -57 3
-58 57 0 57 0 2 -47 c0 -27 2 -56 2 -65 1 -15 11 -18 61 -18 l60 0 0 -50 0
-50 -93 0 c-52 0 -135 -3 -185 -6 l-92 -7 0 -63 0 -64 -110 0 -109 0 -7 -60
-6 -59 -62 -3 -61 -3 0 -58 0 -57 -57 0 -58 0 0 -118 0 -117 -62 0 -63 0 -3
-63 -3 -64 -62 4 -62 3 0 -58 0 -57 -62 0 -63 0 0 -65 0 -65 -61 0 -60 0 1
-67 c1 -38 1 -92 1 -120 l-1 -53 -48 0 -49 0 -6 -159 c-3 -87 -3 -307 0 -490
l6 -331 54 0 55 0 -7 -120 -8 -120 67 0 66 0 0 -55 0 -55 60 0 60 0 0 -54 0
-53 38 -7 c20 -3 49 -6 65 -6 31 0 32 8 20 158 l-6 82 -53 0 -54 0 -1 198 c0
108 -1 270 -2 360 l-2 162 61 0 62 0 -5 60 -6 60 72 0 71 0 0 60 0 60 55 0 55
0 0 65 0 65 71 0 71 0 -7 113 -7 112 56 -3 56 -4 0 131 0 131 63 0 c58 0 63 2
63 23 0 12 1 39 2 60 l2 37 66 0 66 0 -7 114 -6 114 44 6 c25 4 79 4 121 0
l76 -7 0 -53 0 -54 38 -1 c20 -1 45 -1 55 0 14 2 17 -6 17 -43 0 -24 3 -51 6
-60 5 -12 -5 -16 -53 -18 -51 -3 -58 -5 -56 -23 2 -11 0 -37 -3 -57 l-6 -38
-59 0 -59 0 0 -115 0 -114 -62 -3 -63 -3 -3 -127 -3 -128 -59 0 c-69 0 -64 12
-60 -137 l2 -93 -55 0 -54 0 -8 -120 -7 -120 -53 0 -53 0 -4 -82 c-2 -46 -1
-102 1 -125 l3 -43 59 0 59 0 0 -134 c0 -87 6 -159 16 -203 8 -37 14 -85 12
-105 -3 -35 -1 -38 22 -38 70 -1 70 -1 70 -131 l0 -119 60 0 60 0 0 -55 0 -55
65 0 65 0 0 -60 0 -60 60 0 60 0 0 -60 0 -60 126 0 126 0 -5 127 -5 127 -56
-3 -56 -2 -1 48 c-1 26 -2 55 -3 63 -2 8 -3 40 -4 71 -2 46 -5 56 -19 56 -10
-1 -37 0 -60 1 l-43 2 0 175 0 175 -54 0 -54 0 -4 56 c-1 31 -1 58 1 60 2 2
31 4 63 4 l58 0 0 60 0 60 55 0 55 0 0 120 0 120 65 0 65 0 0 240 0 240 60 0
60 0 0 120 0 120 115 0 115 0 0 -54 c0 -34 5 -56 13 -59 6 -2 38 -2 69 1 l57
5 3 -64 3 -64 33 3 c18 2 46 1 62 -3 29 -6 30 -8 30 -66 l0 -59 60 0 60 0 0
-55 0 -55 115 0 115 0 0 -60 0 -60 60 0 60 0 0 -46 c0 -71 21 -83 143 -84 l97
0 0 -59 0 -58 117 -7 c65 -4 118 -8 120 -9 1 -2 3 -26 5 -55 l3 -52 128 0 128
0 -7 108 c-4 59 -8 114 -9 122 -1 11 -15 15 -51 16 -35 0 -49 5 -50 15 0 8 -2
33 -2 57 l-2 42 -59 0 c-58 0 -59 1 -65 31 -3 17 -6 44 -6 60 0 29 0 29 -61
29 l-61 0 4 60 3 60 -58 0 c-64 0 -65 0 -69 75 l-3 50 -58 3 -57 3 0 124 0
125 -60 0 -60 0 -1 38 c-1 20 -1 70 -1 110 l0 73 114 6 c62 2 114 6 116 8 1 1
3 28 3 59 l1 56 59 0 59 0 0 59 0 58 68 6 c37 4 93 7 125 7 l57 0 0 -65 0 -65
130 0 130 0 0 -60 0 -60 120 0 119 0 7 -60 7 -60 996 0 996 0 3 -64 3 -65 -58
-3 -58 -3 -3 -58 -3 -57 -125 5 -124 4 0 -59 0 -60 -59 0 -58 0 -7 -60 -7 -60
-64 0 -65 0 0 -65 0 -65 -62 0 -63 0 3 -120 4 -120 -56 0 -56 0 0 -60 0 -60
-66 0 -65 0 2 -57 3 -58 -42 -6 c-66 -9 -89 -50 -91 -161 l-1 -68 -60 0 -60 0
0 -126 0 -126 -48 7 c-41 5 -51 3 -66 -14 -18 -19 -19 -33 -12 -184 l6 -163
-60 4 -61 4 3 -128 3 -129 113 -3 112 -3 0 66 0 65 75 0 75 0 0 60 0 60 65 0
65 0 0 65 0 65 55 0 55 0 0 60 0 60 65 0 65 0 0 60 0 60 123 -3 122 -2 3 -57
4 -58 -66 0 -66 0 0 -60 0 -60 -60 0 -60 0 0 -64 0 -65 -67 2 -68 2 -3 -57 -3
-58 -59 0 -60 0 0 -60 c0 -50 -3 -60 -17 -61 -10 -1 -22 -2 -28 -4 -5 -1 -22
-3 -37 -3 -28 -2 -28 -3 -28 -67 l0 -65 255 0 255 0 0 65 0 65 110 0 110 0 0
38 c0 20 3 47 6 60 6 22 10 23 65 18 59 -5 59 -5 60 22 0 15 1 42 2 61 l2 35
63 -3 62 -2 0 60 0 61 53 1 c28 1 57 2 62 4 6 1 38 3 73 3 l62 2 0 60 0 60 70
0 70 0 0 60 0 60 60 0 60 0 0 66 0 66 61 -5 61 -5 -4 59 -4 59 63 0 63 0 2 63
c0 34 0 86 -1 115 l-2 52 65 0 66 0 0 125 0 125 60 0 61 0 -7 180 -7 180 67 0
68 0 -8 180 -7 180 57 0 56 0 0 -60 0 -60 120 0 120 0 0 -97 c0 -54 3 -135 7
-180 l6 -83 -57 0 -56 0 0 -120 0 -120 -65 0 -65 0 0 -180 0 -180 -59 0 -59 0
-7 -115 -7 -115 -59 0 -59 0 0 -179 0 -178 -60 -7 -60 -7 0 -54 0 -55 -55 0
-55 0 0 -60 0 -60 -60 0 -60 0 -2 -47 c-1 -27 -2 -56 -1 -65 0 -15 -10 -18
-59 -18 l-58 0 0 -60 0 -60 -71 0 -70 0 4 -117 5 -118 186 -3 186 -2 0 60 0
60 65 0 65 0 0 55 0 55 125 0 125 0 0 65 0 65 50 0 50 0 0 61 0 61 43 -2 c91
-4 87 -7 87 60 l0 60 55 0 55 0 0 61 0 60 68 -2 67 -3 3 62 3 62 65 0 65 0 -3
120 -3 120 64 0 64 0 -6 115 -7 114 62 3 61 3 -1 182 -1 183 59 0 60 0 2 58
c1 31 0 85 -1 120 l-3 62 60 0 60 0 -5 300 -6 300 60 0 61 0 4 -72 c2 -40 4
-124 4 -185 l-1 -113 58 0 57 0 1 -47 c1 -45 2 -101 7 -249 l2 -61 55 5 55 4
0 -126 0 -126 59 0 c52 0 59 -2 65 -22 3 -13 6 -227 6 -475 l0 -453 -60 0 -60
0 0 -120 0 -120 -60 0 -60 0 0 -59 0 -60 120 -3 120 -3 1 50 c1 28 1 56 0 63
-1 8 18 12 69 12 l70 0 0 115 0 115 55 0 55 0 2 63 c1 34 2 73 3 87 1 14 2 40
3 58 l2 32 60 0 60 0 0 304 0 303 61 1 c34 1 63 3 65 5 2 2 1 164 -3 360 l-6
357 -59 0 -58 0 -2 93 c-1 50 -2 99 -4 107 -1 8 -2 22 -3 31 -1 13 -11 15 -56
12 l-55 -4 0 130 0 131 -54 0 -53 0 -7 77 c-3 42 -6 116 -6 165 l0 89 58 -3
57 -3 0 -58 0 -57 40 -2 c22 -1 49 -2 60 -2 17 -1 20 -9 23 -59 l3 -57 53 0
c65 0 66 -2 66 -137 l0 -93 60 0 60 0 0 -60 0 -60 45 -1 c25 -1 51 -2 58 -3 9
-1 13 -105 15 -478 l2 -478 -66 0 -67 0 7 -31 c3 -17 6 -71 6 -120 l0 -89 125
0 125 0 0 60 0 60 65 0 65 0 0 115 0 115 54 0 53 0 7 104 c3 57 6 329 6 605
l-1 501 -58 0 -58 0 -11 83 c-7 45 -12 99 -12 120 l0 37 -54 0 c-40 0 -55 4
-60 16 -3 9 -6 60 -6 115 l0 99 -39 0 c-66 0 -71 5 -71 71 l0 59 -60 0 -60 0
0 55 0 55 -59 0 -59 0 -7 60 c-7 60 -7 60 -41 61 -19 1 -38 3 -44 4 -5 1 -18
3 -29 4 -16 1 -19 14 -26 122 l-7 121 -59 -4 -59 -3 -1 45 c-1 25 -2 52 -3 60
-1 11 -16 16 -58 18 l-58 3 0 59 0 60 -120 0 -120 0 0 60 0 60 -59 0 c-66 0
-71 6 -71 88 l0 42 -180 0 -180 0 -2 -32 c0 -18 0 -45 1 -60 l2 -28 -120 0
-121 0 0 -34 c0 -18 -3 -48 -6 -65 -6 -30 -7 -31 -65 -31 l-59 0 0 -60 0 -60
-61 0 -61 0 7 -60 7 -60 -56 0 -56 0 0 -57 0 -58 -57 0 -58 0 -5 55 c-3 30 -4
83 -2 117 l4 63 60 0 60 0 -4 180 -3 180 67 0 68 0 0 60 0 60 66 0 67 0 -7 92
c-3 50 -6 104 -6 120 l0 28 -124 0 -124 0 -6 31 c-3 17 -6 44 -6 60 0 29 -1
29 -60 29 l-60 0 0 59 0 60 -65 -2 -65 -2 0 58 0 57 -64 0 c-71 0 -76 5 -76
83 l0 37 -125 0 -125 0 0 60 0 60 -54 0 c-52 0 -54 1 -60 31 -3 17 -6 43 -6
57 l0 25 -172 -4 -173 -4 -3 63 -3 63 -204 -3 -205 -3 0 63 0 62 -677 0 c-373
0 -735 3 -805 7 l-128 6 0 -59 0 -59 -192 0 -193 0 -3 -65 -3 -65 -189 1 -190
2 0 -59 0 -59 -125 0 -124 0 -3 -57 -3 -58 -60 -1 -60 -1 3 -57 3 -56 -125 0
c-139 0 -136 2 -136 -82 l0 -38 -184 0 -183 0 -5 -87 c-3 -49 -5 -104 -3 -123
l2 -35 56 0 57 0 0 -117 0 -118 65 0 65 0 1 -62 c1 -35 2 -89 3 -120 l1 -58
62 0 63 0 0 -110 0 -110 59 0 60 0 3 -52 c2 -29 2 -80 0 -114 l-4 -61 -76 -6
c-42 -3 -95 -2 -117 1 l-40 7 -3 58 -3 57 -109 0 -110 0 0 60 0 60 -109 0
-109 0 -7 126 c-7 125 -8 126 -31 120 -13 -4 -42 -3 -64 0 l-40 7 0 53 c0 60
5 56 -85 58 l-50 1 -3 59 -3 59 -118 -7 -118 -6 -7 31 c-3 17 -6 45 -6 61 l0
29 63 -2 62 -3 3 122 3 122 64 0 65 0 0 131 0 131 67 -3 68 -4 -3 258 -3 257
65 0 65 0 3 123 c2 67 2 308 0 535 l-3 412 -65 0 -64 0 0 70 0 70 -79 0 -79 0
5 -245 6 -245 -61 0 -62 0 -2 -62 c-1 -35 -1 -91 1 -125 l3 -63 -66 0 -66 0 0
-118 0 -117 -110 0 -110 0 0 298 0 297 70 0 70 0 0 125 0 125 50 0 50 0 0 135
0 135 60 0 60 0 0 125 0 125 61 0 c52 0 60 2 55 16 -3 9 -6 38 -6 65 l0 49
-180 -1 c-99 0 -180 -3 -181 -7z m-379 -892 c0 -5 -7 -7 -15 -4 -8 4 -15 8
-15 10 0 2 7 4 15 4 8 0 15 -4 15 -10z m-113 -72 c-3 -7 -5 -2 -5 12 0 14 2
19 5 13 2 -7 2 -19 0 -25z m113 -13 c0 -8 -4 -15 -10 -15 -5 0 -7 7 -4 15 4 8
8 15 10 15 2 0 4 -7 4 -15z m-113 -117 c-2 -18 -4 -4 -4 32 0 36 2 50 4 33 2
-18 2 -48 0 -65z m124 59 c-10 -9 -11 -8 -5 6 3 10 9 15 12 12 3 -3 0 -11 -7
-18z m-4 -49 c-3 -8 -6 -5 -6 6 -1 11 2 17 5 13 3 -3 4 -12 1 -19z m-87 -28
c0 -5 -5 -10 -11 -10 -5 0 -7 5 -4 10 3 6 8 10 11 10 2 0 4 -4 4 -10z m298
-507 c-16 -2 -40 -2 -55 0 -16 2 -3 4 27 4 30 0 43 -2 28 -4z m42 -58 c0 -30
-3 -55 -8 -55 -4 0 -7 21 -6 48 3 60 3 62 9 62 3 0 5 -25 5 -55z m-90 5 c0 -5
-5 -10 -11 -10 -5 0 -7 5 -4 10 3 6 8 10 11 10 2 0 4 -4 4 -10z m50 -4 c0 -11
-19 -15 -25 -6 -3 5 1 10 9 10 9 0 16 -2 16 -4z m-30 -41 c11 -13 10 -14 -4
-9 -9 3 -16 10 -16 15 0 13 6 11 20 -6z m-443 -1 c-3 -3 -12 -4 -19 -1 -8 3
-5 6 6 6 11 1 17 -2 13 -5z m46 -1 c-7 -2 -19 -2 -25 0 -7 3 -2 5 12 5 14 0
19 -2 13 -5z m454 -105 c-2 -18 -4 -6 -4 27 0 33 2 48 4 33 2 -15 2 -42 0 -60z
m-209 37 c-3 -3 -9 2 -12 12 -6 14 -5 15 5 6 7 -7 10 -15 7 -18z m157 -59 c17
-1 -16 -4 -72 -4 -57 -1 -103 1 -103 6 0 6 105 6 175 -2z m-437 -137 c-10 -7
-10 -9 0 -9 8 0 12 -17 12 -53 l0 -54 -44 0 -44 -1 0 51 c1 29 3 43 6 33 2
-11 14 -28 26 -39 17 -15 17 -18 4 -13 -10 3 -18 2 -18 -3 0 -13 49 -20 57 -9
3 6 2 13 -3 17 -13 9 -17 44 -5 36 6 -3 11 -3 11 2 -1 13 -49 45 -59 38 -5 -3
-12 -1 -15 4 -4 5 14 9 39 9 28 -1 41 -4 33 -9z m-43 -19 c3 -5 1 -10 -4 -10
-6 0 -11 5 -11 10 0 6 2 10 4 10 3 0 8 -4 11 -10z m21 -258 c-3 -5 -15 -8 -28
-6 -35 4 -36 6 -3 13 33 8 40 7 31 -7z m44 -42 l0 -60 -52 2 -53 2 48 3 c46 4
47 5 47 39 0 23 -5 34 -15 34 -9 0 -12 6 -9 15 4 8 10 12 15 9 5 -3 9 0 9 5 0
6 2 11 5 11 3 0 5 -27 5 -60z m-181 43 c-13 -3 -17 -15 -15 -46 1 -41 2 -42
41 -48 l40 -6 -47 -2 -48 -1 0 55 c0 51 2 55 23 54 15 -1 17 -3 6 -6z m98 -45
c-3 -8 -6 -5 -6 6 -1 11 2 17 5 13 3 -3 4 -12 1 -19z m2620 -3 c2 -17 1 -17
-3 -2 -4 11 -12 16 -21 13 -8 -3 -23 -6 -33 -6 -13 0 -20 -9 -23 -27 -4 -27
-4 -26 -6 4 -1 25 3 32 22 36 41 8 62 3 64 -18z m33 15 c0 -5 -4 -10 -10 -10
-5 0 -10 5 -10 10 0 6 5 10 10 10 6 0 10 -4 10 -10z m580 -4 c0 -3 -4 -8 -10
-11 -5 -3 -10 -1 -10 4 0 6 5 11 10 11 6 0 10 -2 10 -4z m-3210 -30 c0 -3 -4
-8 -10 -11 -5 -3 -10 -1 -10 4 0 6 5 11 10 11 6 0 10 -2 10 -4z m2620 -46 c10
-7 -5 -9 -50 -8 -59 1 -61 2 -25 8 59 11 59 11 75 0z m537 -12 c-3 -8 -6 -5
-6 6 -1 11 2 17 5 13 3 -3 4 -12 1 -19z m-810 -125 c-20 -2 -52 -2 -70 0 -17
2 0 4 38 4 39 0 53 -2 32 -4z m2173 -7 c0 -7 -71 -13 -75 -6 -2 3 14 7 36 8
21 2 39 1 39 -2z m130 -5 c0 -4 -11 -6 -25 -3 -14 2 -25 6 -25 8 0 2 11 4 25
4 14 0 25 -4 25 -9z m-139 -74 c-10 -9 -11 -8 -5 6 3 10 9 15 12 12 3 -3 0
-11 -7 -18z m-64 -11 c19 1 45 -1 57 -6 15 -6 4 -9 -41 -9 -59 -1 -63 0 -62
22 1 14 3 16 6 6 3 -12 14 -15 40 -13z m203 2 c0 -10 -39 -14 -85 -9 -32 3
-35 6 -17 10 32 8 102 8 102 -1z m-2270 -83 l0 -65 -59 0 -58 0 -6 57 c-3 31
-4 60 -1 65 3 4 32 8 65 8 l59 0 0 -65z m629 33 c-1 -17 -3 -18 -6 -6 -3 13
-18 18 -61 21 l-57 3 63 2 c59 2 62 1 61 -20z m-96 -23 c-5 -13 -23 -22 -23
-11 0 15 14 35 21 31 4 -3 6 -12 2 -20z m45 -28 c2 -11 -3 -17 -15 -16 -11 0
-13 3 -5 6 10 4 10 8 0 21 -11 13 -11 14 2 10 8 -2 16 -12 18 -21z m-45 -4
c-28 -11 -10 -22 40 -26 l52 -3 -57 -2 c-43 -2 -58 2 -58 11 0 17 10 27 24 26
6 0 5 -3 -1 -6z m267 -54 c0 -4 -7 -6 -15 -3 -8 4 -15 10 -15 15 0 4 7 6 15 3
8 -4 15 -10 15 -15z m53 4 c-7 -2 -21 -2 -30 0 -10 3 -4 5 12 5 17 0 24 -2 18
-5z m50 0 c-7 -2 -19 -2 -25 0 -7 3 -2 5 12 5 14 0 19 -2 13 -5z m374 1 c-3
-3 -12 -4 -19 -1 -8 3 -5 6 6 6 11 1 17 -2 13 -5z m863 -54 l0 -60 -55 0 -55
0 0 60 0 60 55 0 55 0 0 -60z m-1354 -17 c-3 -7 -1 -15 4 -18 6 -4 10 0 10 7
0 8 3 9 8 3 8 -12 61 -13 80 -2 7 5 12 3 12 -7 0 -13 -13 -16 -65 -16 l-65 0
1 48 c0 41 2 44 10 23 5 -14 8 -30 5 -38z m81 20 c-3 -3 -11 -2 -17 2 -9 6 -9
10 1 16 14 8 27 -7 16 -18z m-47 -3 c0 -5 -2 -10 -4 -10 -3 0 -8 5 -11 10 -3
6 -1 10 4 10 6 0 11 -4 11 -10z m-87 -47 c-7 -2 -19 -2 -25 0 -7 3 -2 5 12 5
14 0 19 -2 13 -5z m630 0 c-7 -2 -19 -2 -25 0 -7 3 -2 5 12 5 14 0 19 -2 13
-5z m-93 -63 c0 -31 -4 -40 -17 -40 -13 0 -14 3 -5 12 7 7 12 25 12 40 0 15 2
28 5 28 3 0 5 -18 5 -40z m0 -59 c0 -3 -20 -5 -45 -3 -25 2 -45 7 -45 11 0 3
20 5 45 3 25 -2 45 -7 45 -11z m1934 -26 c3 -10 -1 -15 -11 -15 -13 0 -12 -4
6 -19 12 -11 21 -27 19 -37 -2 -11 5 -18 21 -20 21 -4 23 -1 19 33 -3 21 -7
43 -9 48 -2 6 1 11 6 13 6 1 11 -22 13 -53 l3 -55 -58 1 c-38 1 -49 4 -33 8
32 8 36 28 10 51 -22 19 -27 40 -9 40 5 0 7 5 4 10 -3 6 -2 10 3 10 6 0 12 -7
16 -15z m224 -34 c16 -13 16 -13 0 -8 -11 4 -18 1 -18 -6 0 -23 15 -34 53 -40
l37 -6 0 49 c0 45 -2 49 -27 53 -26 4 -26 4 5 6 l32 1 0 -61 0 -61 -31 6 c-17
3 -42 6 -55 6 -23 0 -24 3 -23 58 1 31 3 48 6 37 3 -11 12 -26 21 -34z m25 15
c4 -10 1 -13 -9 -9 -7 3 -14 9 -14 14 0 14 17 10 23 -5z m32 5 c3 -5 1 -12 -5
-16 -5 -3 -10 1 -10 9 0 18 6 21 15 7z m-235 -52 c0 -11 -4 -17 -10 -14 -5 3
-10 13 -10 21 0 8 5 14 10 14 6 0 10 -9 10 -21z m225 5 c-9 -9 -19 -13 -23
-10 -3 4 0 11 8 16 24 15 33 11 15 -6z m1511 -616 c-3 -50 -6 -106 -6 -125 l0
-33 -55 0 -55 0 0 128 0 127 61 -3 62 -4 -7 -90z m-1086 32 l0 -50 -60 0 -60
0 0 50 0 50 60 0 60 0 0 -50z m1194 -212 c3 -13 6 -38 6 -55 l0 -33 65 0 65 0
0 -60 0 -60 -59 0 c-65 0 -71 6 -71 83 l0 37 -55 0 -55 0 0 55 0 55 49 0 c42
0 49 -3 55 -22z m-7164 -88 c0 -14 -38 -32 -44 -21 -4 5 -3 11 1 14 5 2 1 2
-7 -1 -8 -3 -23 -5 -32 -6 -10 0 -19 -4 -19 -8 -1 -4 -2 -12 -3 -17 -4 -28
-16 -19 -16 12 l0 37 60 0 c33 0 60 -4 60 -10z m-2 -60 c-1 -35 -13 -40 -21
-8 -5 18 5 37 20 38 1 0 1 -13 1 -30z m-64 12 c3 -5 -1 -9 -9 -9 -8 0 -12 4
-9 9 3 4 7 8 9 8 2 0 6 -4 9 -8z m-19 -42 c-3 -5 16 -11 42 -13 44 -3 42 -4
-14 -5 -35 -1 -63 0 -63 2 0 18 14 34 26 29 8 -3 12 -9 9 -13z m-277 -200 c0
-53 -10 -61 -44 -35 -16 13 -16 14 -1 9 10 -4 17 -1 18 7 1 8 3 24 4 37 2 17
-3 22 -21 22 -13 0 -24 -6 -25 -12 0 -10 -2 -10 -6 0 -11 28 -23 9 -23 -37 0
-39 4 -51 18 -54 13 -4 11 -5 -5 -6 -21 -1 -23 3 -23 59 l0 60 54 0 55 0 -1
-50z m7792 -16 l0 -67 -37 7 c-21 3 -46 6 -55 6 -15 0 -18 10 -18 60 l0 60 55
0 55 0 0 -66z m-7820 26 c0 -5 -2 -10 -4 -10 -3 0 -8 5 -11 10 -3 6 -1 10 4
10 6 0 11 -4 11 -10z m-43 -42 c-3 -8 -6 -5 -6 6 -1 11 2 17 5 13 3 -3 4 -12
1 -19z m63 -34 c0 -2 -11 -4 -25 -4 -14 0 -25 4 -25 9 0 4 11 6 25 3 14 -2 25
-6 25 -8z m7149 -120 l31 -6 0 -109 0 -109 -55 0 -55 0 0 115 c0 128 -2 125
79 109z m-7379 -174 l0 -60 -60 0 -60 0 2 58 2 57 3 -52 4 -53 50 0 c50 0 58
6 37 29 -10 11 -10 13 0 7 8 -5 12 2 12 24 0 19 -5 30 -12 29 -7 -1 -29 0 -48
1 l-35 3 40 7 c22 4 46 8 53 9 8 1 12 -17 12 -59z m7017 44 c-3 -3 -12 -4 -19
-1 -8 3 -5 6 6 6 11 1 17 -2 13 -5z m20 -41 c-3 -10 -5 -2 -5 17 0 19 2 27 5
18 2 -10 2 -26 0 -35z m-1284 -190 c-7 -2 -21 -2 -30 0 -10 3 -4 5 12 5 17 0
24 -2 18 -5z m85 -30 c-1 -37 -1 -37 -5 -6 -3 26 -9 33 -31 36 -24 4 -24 4 6
6 31 1 32 0 30 -36z m1109 -295 c-2 -18 -4 -4 -4 32 0 36 2 50 4 33 2 -18 2
-48 0 -65z m-1564 75 c-7 -2 -19 -2 -25 0 -7 3 -2 5 12 5 14 0 19 -2 13 -5z
m67 -3 c0 -5 -2 -10 -4 -10 -3 0 -8 5 -11 10 -3 6 -1 10 4 10 6 0 11 -4 11
-10z m1587 -22 c-3 -8 -6 -5 -6 6 -1 11 2 17 5 13 3 -3 4 -12 1 -19z m-1708
-148 l2 -60 -60 0 c-37 0 -61 4 -61 11 0 5 8 9 18 8 44 -4 53 1 47 22 -4 13
-3 19 2 16 6 -4 18 0 28 7 13 9 15 15 7 20 -7 4 -12 3 -12 -2 0 -5 -14 -9 -30
-10 -18 0 -28 3 -24 10 3 5 15 8 25 5 12 -3 19 0 19 9 0 9 -11 13 -35 12 -19
-1 -38 2 -42 5 -3 4 21 7 54 7 l60 0 2 -60z m-94 30 c-3 -5 -11 -10 -16 -10
-6 0 -7 5 -4 10 3 6 11 10 16 10 6 0 7 -4 4 -10z m-4738 -292 c-2 -18 -4 -6
-4 27 0 33 2 48 4 33 2 -15 2 -42 0 -60z m50 76 c-3 -3 -12 -4 -19 -1 -8 3 -5
6 6 6 11 1 17 -2 13 -5z m-5 -46 c-7 -7 -12 -8 -12 -2 0 14 12 26 19 19 2 -3
-1 -11 -7 -17z m58 -38 c0 -11 -4 -20 -9 -20 -5 0 -7 9 -4 20 3 11 7 20 9 20
2 0 4 -9 4 -20z m-36 -5 c4 -12 -2 -15 -27 -14 -23 1 -26 3 -9 6 12 2 22 9 22
14 0 14 7 11 14 -6z m4244 -12 c-10 -2 -28 -2 -40 0 -13 2 -5 4 17 4 22 1 32
-1 23 -4z m-178 -267 c0 -2 -7 -7 -16 -10 -8 -3 -12 -2 -9 4 6 10 25 14 25 6z
m53 -3 c-7 -2 -21 -2 -30 0 -10 3 -4 5 12 5 17 0 24 -2 18 -5z m-38 -83 c3 -5
-1 -10 -10 -10 -9 0 -13 5 -10 10 3 6 8 10 10 10 2 0 7 -4 10 -10z m-40 -10
c3 -5 -1 -10 -9 -10 -9 0 -16 5 -16 10 0 6 4 10 9 10 6 0 13 -4 16 -10z m-105
-14 c0 -2 -9 -6 -20 -9 -11 -3 -18 -1 -14 4 5 9 34 13 34 5z m62 -73 c-8 -13
-9 -9 -7 18 6 60 8 65 12 32 2 -18 0 -40 -5 -50z m-55 -39 c-3 -3 -12 -4 -19
-1 -8 3 -5 6 6 6 11 1 17 -2 13 -5z m-60 -76 c-3 -8 -6 -5 -6 6 -1 11 2 17 5
13 3 -3 4 -12 1 -19z m508 -219 l0 -54 -57 -3 -58 -3 0 55 0 55 48 4 c68 5 67
5 67 -54z"/>
<path d="M6365 3150 c-3 -5 -2 -10 4 -10 5 0 13 5 16 10 3 6 2 10 -4 10 -5 0
-13 -4 -16 -10z"/>
<path d="M1163 8263 c15 -2 37 -2 50 0 12 2 0 4 -28 4 -27 0 -38 -2 -22 -4z"/>
<path d="M1283 8263 c9 -2 25 -2 35 0 9 3 1 5 -18 5 -19 0 -27 -2 -17 -5z"/>
<path d="M1082 8190 c0 -14 2 -19 5 -12 2 6 2 18 0 25 -3 6 -5 1 -5 -13z"/>
<path d="M1013 8153 c15 -2 39 -2 55 0 15 2 2 4 -28 4 -30 0 -43 -2 -27 -4z"/>
<path d="M603 7975 c0 -44 2 -61 4 -37 2 23 2 59 0 80 -2 20 -4 1 -4 -43z"/>
<path d="M955 7910 c3 -5 8 -10 11 -10 2 0 4 5 4 10 0 6 -5 10 -11 10 -5 0 -7
-4 -4 -10z"/>
<path d="M607 7880 c4 -4 33 -4 63 0 l55 8 -63 -1 c-34 0 -59 -3 -55 -7z"/>
<path d="M955 7880 c3 -5 8 -10 11 -10 2 0 4 5 4 10 0 6 -5 10 -11 10 -5 0 -7
-4 -4 -10z"/>
<path d="M733 7835 c0 -27 2 -38 4 -22 2 15 2 37 0 50 -2 12 -4 0 -4 -28z"/>
<path d="M1065 7870 c-16 -7 -17 -9 -3 -9 10 -1 18 -11 21 -28 3 -23 4 -21 6
10 0 20 0 37 -1 36 -2 0 -12 -4 -23 -9z"/>
<path d="M1008 7863 c6 -2 18 -2 25 0 6 3 1 5 -13 5 -14 0 -19 -2 -12 -5z"/>
<path d="M730 7768 c0 -4 24 -7 53 -7 54 1 49 5 -15 11 -21 2 -38 0 -38 -4z"/>
<path d="M955 7770 c-3 -5 -1 -10 4 -10 6 0 11 5 11 10 0 6 -2 10 -4 10 -3 0
-8 -4 -11 -10z"/>
<path d="M848 7763 c7 -3 16 -2 19 1 4 3 -2 6 -13 5 -11 0 -14 -3 -6 -6z"/>
<path d="M2198 1433 c7 -3 16 -2 19 1 4 3 -2 6 -13 5 -11 0 -14 -3 -6 -6z"/>
</g>
</svg>
